<?xml version="1.0" encoding="UTF-8"?>
<!DOCTYPE svg PUBLIC "-//W3C//DTD SVG 1.1//EN" "http://www.w3.org/Graphics/SVG/1.1/DTD/svg11.dtd">
<svg width="183mm" height="124mm" viewBox="0 0 18300 12400" version="1.1" xmlns="http://www.w3.org/2000/svg" xmlns:xlink="http://www.w3.org/1999/xlink" stroke-width="28.222" stroke-linejoin="round" xml:space="preserve">
 <path fill="rgb(255,255,255)" stroke="none" d="M 9125,12359 L -13,12359 -13,-13 18262,-13 18262,12359 9125,12359 Z"/>
 <path fill="none" stroke="rgb(179,179,179)" stroke-linejoin="round" d="M 9634,10570 L 2286,10570 2286,2095 16982,2095 16982,10570 9634,10570 Z"/>
 <path fill="none" stroke="rgb(179,179,179)" stroke-linejoin="round" d="M 16982,10569 L 2286,10569"/>
 <path fill="none" stroke="rgb(179,179,179)" stroke-linejoin="round" d="M 16982,9627 L 2286,9627"/>
 <path fill="none" stroke="rgb(179,179,179)" stroke-linejoin="round" d="M 16982,8685 L 2286,8685"/>
 <path fill="none" stroke="rgb(179,179,179)" stroke-linejoin="round" d="M 16982,7743 L 2286,7743"/>
 <path fill="none" stroke="rgb(179,179,179)" stroke-linejoin="round" d="M 16982,6801 L 2286,6801"/>
 <path fill="none" stroke="rgb(179,179,179)" stroke-linejoin="round" d="M 16982,5861 L 2286,5861"/>
 <path fill="none" stroke="rgb(179,179,179)" stroke-linejoin="round" d="M 16982,4919 L 2286,4919"/>
 <path fill="none" stroke="rgb(179,179,179)" stroke-linejoin="round" d="M 16982,3977 L 2286,3977"/>
 <path fill="none" stroke="rgb(179,179,179)" stroke-linejoin="round" d="M 16982,3035 L 2286,3035"/>
 <path fill="none" stroke="rgb(179,179,179)" stroke-linejoin="round" d="M 16982,2094 L 2286,2094"/>
 <path fill="none" stroke="rgb(179,179,179)" stroke-linejoin="round" d="M 2286,10719 L 2286,10569"/>
 <path fill="none" stroke="rgb(179,179,179)" stroke-linejoin="round" d="M 2286,10719 L 2286,10569"/>
 <path fill="none" stroke="rgb(179,179,179)" stroke-linejoin="round" d="M 5960,10719 L 5960,10569"/>
 <path fill="none" stroke="rgb(179,179,179)" stroke-linejoin="round" d="M 5960,10719 L 5960,10569"/>
 <path fill="none" stroke="rgb(179,179,179)" stroke-linejoin="round" d="M 9633,10719 L 9633,10569"/>
 <path fill="none" stroke="rgb(179,179,179)" stroke-linejoin="round" d="M 9633,10719 L 9633,10569"/>
 <path fill="none" stroke="rgb(179,179,179)" stroke-linejoin="round" d="M 13307,10719 L 13307,10569"/>
 <path fill="none" stroke="rgb(179,179,179)" stroke-linejoin="round" d="M 13307,10719 L 13307,10569"/>
 <path fill="none" stroke="rgb(179,179,179)" stroke-linejoin="round" d="M 16982,10719 L 16982,10569"/>
 <path fill="none" stroke="rgb(179,179,179)" stroke-linejoin="round" d="M 16982,10719 L 16982,10569"/>
 <path fill="none" stroke="rgb(179,179,179)" stroke-linejoin="round" d="M 2286,10569 L 16982,10569"/>
 <path fill="none" stroke="rgb(179,179,179)" stroke-linejoin="round" d="M 2136,10569 L 2286,10569"/>
 <path fill="none" stroke="rgb(179,179,179)" stroke-linejoin="round" d="M 2136,10569 L 2286,10569"/>
 <path fill="none" stroke="rgb(179,179,179)" stroke-linejoin="round" d="M 2136,9627 L 2286,9627"/>
 <path fill="none" stroke="rgb(179,179,179)" stroke-linejoin="round" d="M 2136,9627 L 2286,9627"/>
 <path fill="none" stroke="rgb(179,179,179)" stroke-linejoin="round" d="M 2136,8685 L 2286,8685"/>
 <path fill="none" stroke="rgb(179,179,179)" stroke-linejoin="round" d="M 2136,8685 L 2286,8685"/>
 <path fill="none" stroke="rgb(179,179,179)" stroke-linejoin="round" d="M 2136,7743 L 2286,7743"/>
 <path fill="none" stroke="rgb(179,179,179)" stroke-linejoin="round" d="M 2136,7743 L 2286,7743"/>
 <path fill="none" stroke="rgb(179,179,179)" stroke-linejoin="round" d="M 2136,6801 L 2286,6801"/>
 <path fill="none" stroke="rgb(179,179,179)" stroke-linejoin="round" d="M 2136,6801 L 2286,6801"/>
 <path fill="none" stroke="rgb(179,179,179)" stroke-linejoin="round" d="M 2136,5861 L 2286,5861"/>
 <path fill="none" stroke="rgb(179,179,179)" stroke-linejoin="round" d="M 2136,5861 L 2286,5861"/>
 <path fill="none" stroke="rgb(179,179,179)" stroke-linejoin="round" d="M 2136,4919 L 2286,4919"/>
 <path fill="none" stroke="rgb(179,179,179)" stroke-linejoin="round" d="M 2136,4919 L 2286,4919"/>
 <path fill="none" stroke="rgb(179,179,179)" stroke-linejoin="round" d="M 2136,3977 L 2286,3977"/>
 <path fill="none" stroke="rgb(179,179,179)" stroke-linejoin="round" d="M 2136,3977 L 2286,3977"/>
 <path fill="none" stroke="rgb(179,179,179)" stroke-linejoin="round" d="M 2136,3035 L 2286,3035"/>
 <path fill="none" stroke="rgb(179,179,179)" stroke-linejoin="round" d="M 2136,3035 L 2286,3035"/>
 <path fill="none" stroke="rgb(179,179,179)" stroke-linejoin="round" d="M 2136,2094 L 2286,2094"/>
 <path fill="none" stroke="rgb(179,179,179)" stroke-linejoin="round" d="M 2136,2094 L 2286,2094"/>
 <path fill="none" stroke="rgb(179,179,179)" stroke-linejoin="round" d="M 2286,10569 L 2286,2094"/>
 <path fill="rgb(0,69,134)" stroke="none" d="M 13920,10569 L 15144,10569 15144,2597 13920,2597 13920,10569 Z"/>
 <path fill="rgb(0,69,134)" stroke="none" d="M 10245,10569 L 11470,10569 11470,4304 10245,4304 10245,10569 Z"/>
 <path fill="rgb(0,69,134)" stroke="none" d="M 6572,10569 L 7797,10569 7797,7670 6572,7670 6572,10569 Z"/>
 <path fill="rgb(0,69,134)" stroke="none" d="M 2898,10569 L 4123,10569 4123,10180 2898,10180 2898,10569 Z"/>
 <path fill="rgb(255,66,14)" stroke="none" d="M 15144,10569 L 16369,10569 16369,2619 15144,2619 15144,10569 Z"/>
 <path fill="rgb(255,66,14)" stroke="none" d="M 11470,10569 L 12695,10569 12695,4311 11470,4311 11470,10569 Z"/>
 <path fill="rgb(255,66,14)" stroke="none" d="M 7797,10569 L 9022,10569 9022,2546 7797,2546 7797,10569 Z"/>
 <path fill="rgb(255,66,14)" stroke="none" d="M 4123,10569 L 5347,10569 5347,10218 4123,10218 4123,10569 Z"/>
 <text class="SVGTextShape"><tspan class="TextParagraph" font-family="Liberation Sans, sans-serif" font-size="353px" font-weight="400"><tspan class="TextPosition" x="3726" y="11137"><tspan fill="rgb(0,0,0)" stroke="none" style="white-space: pre">Pypy</tspan></tspan></tspan></text>
 <text class="SVGTextShape"><tspan class="TextParagraph" font-family="Liberation Sans, sans-serif" font-size="353px" font-weight="400"><tspan class="TextPosition" x="7122" y="11137"><tspan fill="rgb(0,0,0)" stroke="none" style="white-space: pre">GraalVM</tspan></tspan></tspan></text>
 <text class="SVGTextShape"><tspan class="TextParagraph" font-family="Liberation Sans, sans-serif" font-size="353px" font-weight="400"><tspan class="TextPosition" x="10928" y="11137"><tspan fill="rgb(0,0,0)" stroke="none" style="white-space: pre">Cython</tspan></tspan></tspan></text>
 <text class="SVGTextShape"><tspan class="TextParagraph" font-family="Liberation Sans, sans-serif" font-size="353px" font-weight="400"><tspan class="TextPosition" x="14483" y="11137"><tspan fill="rgb(0,0,0)" stroke="none" style="white-space: pre">CPython</tspan></tspan></tspan></text>
 <text class="SVGTextShape"><tspan class="TextParagraph" font-family="Liberation Sans, sans-serif" font-size="353px" font-weight="400"><tspan class="TextPosition" x="1851" y="10690"><tspan fill="rgb(0,0,0)" stroke="none" style="white-space: pre">0</tspan></tspan></tspan></text>
 <text class="SVGTextShape"><tspan class="TextParagraph" font-family="Liberation Sans, sans-serif" font-size="353px" font-weight="400"><tspan class="TextPosition" x="1851" y="9748"><tspan fill="rgb(0,0,0)" stroke="none" style="white-space: pre">1</tspan></tspan></tspan></text>
 <text class="SVGTextShape"><tspan class="TextParagraph" font-family="Liberation Sans, sans-serif" font-size="353px" font-weight="400"><tspan class="TextPosition" x="1851" y="8806"><tspan fill="rgb(0,0,0)" stroke="none" style="white-space: pre">2</tspan></tspan></tspan></text>
 <text class="SVGTextShape"><tspan class="TextParagraph" font-family="Liberation Sans, sans-serif" font-size="353px" font-weight="400"><tspan class="TextPosition" x="1851" y="7864"><tspan fill="rgb(0,0,0)" stroke="none" style="white-space: pre">3</tspan></tspan></tspan></text>
 <text class="SVGTextShape"><tspan class="TextParagraph" font-family="Liberation Sans, sans-serif" font-size="353px" font-weight="400"><tspan class="TextPosition" x="1851" y="6922"><tspan fill="rgb(0,0,0)" stroke="none" style="white-space: pre">4</tspan></tspan></tspan></text>
 <text class="SVGTextShape"><tspan class="TextParagraph" font-family="Liberation Sans, sans-serif" font-size="353px" font-weight="400"><tspan class="TextPosition" x="1851" y="5981"><tspan fill="rgb(0,0,0)" stroke="none" style="white-space: pre">5</tspan></tspan></tspan></text>
 <text class="SVGTextShape"><tspan class="TextParagraph" font-family="Liberation Sans, sans-serif" font-size="353px" font-weight="400"><tspan class="TextPosition" x="1851" y="5039"><tspan fill="rgb(0,0,0)" stroke="none" style="white-space: pre">6</tspan></tspan></tspan></text>
 <text class="SVGTextShape"><tspan class="TextParagraph" font-family="Liberation Sans, sans-serif" font-size="353px" font-weight="400"><tspan class="TextPosition" x="1851" y="4097"><tspan fill="rgb(0,0,0)" stroke="none" style="white-space: pre">7</tspan></tspan></tspan></text>
 <text class="SVGTextShape"><tspan class="TextParagraph" font-family="Liberation Sans, sans-serif" font-size="353px" font-weight="400"><tspan class="TextPosition" x="1851" y="3155"><tspan fill="rgb(0,0,0)" stroke="none" style="white-space: pre">8</tspan></tspan></tspan></text>
 <text class="SVGTextShape"><tspan class="TextParagraph" font-family="Liberation Sans, sans-serif" font-size="353px" font-weight="400"><tspan class="TextPosition" x="1851" y="2214"><tspan fill="rgb(0,0,0)" stroke="none" style="white-space: pre">9</tspan></tspan></tspan></text>
 <text class="SVGTextShape"><tspan class="TextParagraph" font-family="Liberation Sans, sans-serif" font-size="353px" font-weight="400"><tspan class="TextPosition" x="3086" y="10002"><tspan fill="rgb(0,0,0)" stroke="none" style="white-space: pre">0,413</tspan></tspan></tspan></text>
 <text class="SVGTextShape"><tspan class="TextParagraph" font-family="Liberation Sans, sans-serif" font-size="353px" font-weight="400"><tspan class="TextPosition" x="6760" y="7492"><tspan fill="rgb(0,0,0)" stroke="none" style="white-space: pre">3,078</tspan></tspan></tspan></text>
 <text class="SVGTextShape"><tspan class="TextParagraph" font-family="Liberation Sans, sans-serif" font-size="353px" font-weight="400"><tspan class="TextPosition" x="10435" y="4126"><tspan fill="rgb(0,0,0)" stroke="none" style="white-space: pre">6,653</tspan></tspan></tspan></text>
 <text class="SVGTextShape"><tspan class="TextParagraph" font-family="Liberation Sans, sans-serif" font-size="353px" font-weight="400"><tspan class="TextPosition" x="14109" y="2419"><tspan fill="rgb(0,0,0)" stroke="none" style="white-space: pre">8,465</tspan></tspan></tspan></text>
 <text class="SVGTextShape"><tspan class="TextParagraph" font-family="Liberation Sans, sans-serif" font-size="353px" font-weight="400"><tspan class="TextPosition" x="4311" y="10040"><tspan fill="rgb(0,0,0)" stroke="none" style="white-space: pre">0,372</tspan></tspan></tspan></text>
 <text class="SVGTextShape"><tspan class="TextParagraph" font-family="Liberation Sans, sans-serif" font-size="353px" font-weight="400"><tspan class="TextPosition" x="8078" y="2368"><tspan fill="rgb(0,0,0)" stroke="none" style="white-space: pre">8,52</tspan></tspan></tspan></text>
 <text class="SVGTextShape"><tspan class="TextParagraph" font-family="Liberation Sans, sans-serif" font-size="353px" font-weight="400"><tspan class="TextPosition" x="11660" y="4133"><tspan fill="rgb(0,0,0)" stroke="none" style="white-space: pre">6,645</tspan></tspan></tspan></text>
 <text class="SVGTextShape"><tspan class="TextParagraph" font-family="Liberation Sans, sans-serif" font-size="353px" font-weight="400"><tspan class="TextPosition" x="15334" y="2441"><tspan fill="rgb(0,0,0)" stroke="none" style="white-space: pre">8,442</tspan></tspan></tspan></text>
 <text class="SVGTextShape"><tspan class="TextParagraph" font-family="Liberation Sans, sans-serif" font-size="459px" font-weight="400"><tspan class="TextPosition" x="6638" y="905"><tspan fill="rgb(0,0,0)" stroke="none" style="white-space: pre">Performance comparison</tspan></tspan></tspan></text>
 <path fill="rgb(0,69,134)" stroke="none" d="M 17068,6029 L 16962,6029 16962,5818 17173,5818 17173,6029 17068,6029 Z"/>
 <path fill="rgb(255,66,14)" stroke="none" d="M 17068,6526 L 16962,6526 16962,6315 17173,6315 17173,6526 17068,6526 Z"/>
 <text class="SVGTextShape"><tspan class="TextParagraph" font-family="Liberation Sans, sans-serif" font-size="353px" font-weight="400"><tspan class="TextPosition" x="17273" y="6043"><tspan fill="rgb(0,0,0)" stroke="none" style="white-space: pre">real</tspan></tspan></tspan></text>
 <text class="SVGTextShape"><tspan class="TextParagraph" font-family="Liberation Sans, sans-serif" font-size="353px" font-weight="400"><tspan class="TextPosition" x="17273" y="6540"><tspan fill="rgb(0,0,0)" stroke="none" style="white-space: pre">user</tspan></tspan></tspan></text>
 <text class="SVGTextShape"><tspan class="TextParagraph" font-family="Liberation Sans, sans-serif" font-size="318px" font-weight="400"><tspan class="TextPosition" x="8304" y="11851"><tspan fill="rgb(0,0,0)" stroke="none" style="white-space: pre">Implementation</tspan></tspan></tspan></text>
 <text class="SVGTextShape" transform="rotate(-90 1311 9268)"><tspan class="TextParagraph" font-family="Liberation Sans, sans-serif" font-size="318px" font-weight="400"><tspan class="TextPosition" x="1311" y="9268"><tspan fill="rgb(0,0,0)" stroke="none" style="white-space: pre">Time in second (The lesser the better)</tspan></tspan></tspan></text>
</svg>